<svg xmlns="http://www.w3.org/2000/svg" xmlns:xlink="http://www.w3.org/1999/xlink" width="1920" zoomAndPan="magnify" viewBox="0 0 1440 809.999993" height="1080" preserveAspectRatio="xMidYMid meet" version="1.0"><defs><clipPath id="f0823b959e"><path d="M 269.375 0 L 1170.875 0 L 1170.875 810 L 269.375 810 Z M 269.375 0 " clip-rule="nonzero"/></clipPath></defs><g clip-path="url(#f0823b959e)"><path fill="#21ab9d" d="M 507.390625 -0.0078125 C 505.210938 -0.0703125 503.046875 0.0742188 500.894531 0.429688 C 498.746094 0.785156 496.648438 1.34375 494.605469 2.105469 C 492.5625 2.867188 490.613281 3.816406 488.753906 4.953125 C 486.894531 6.09375 485.164062 7.398438 483.558594 8.875 L 280.949219 188.96875 C 280.09375 189.734375 279.273438 190.539062 278.5 191.382812 C 277.722656 192.230469 276.992188 193.113281 276.304688 194.035156 C 275.617188 194.957031 274.980469 195.910156 274.390625 196.898438 C 273.804688 197.882812 273.265625 198.894531 272.78125 199.9375 C 272.296875 200.976562 271.863281 202.042969 271.488281 203.125 C 271.109375 204.210938 270.789062 205.3125 270.523438 206.429688 C 270.261719 207.546875 270.054688 208.675781 269.902344 209.816406 C 269.753906 210.953125 269.664062 212.097656 269.628906 213.246094 C 269.597656 214.394531 269.621094 215.539062 269.707031 216.683594 C 269.789062 217.832031 269.933594 218.96875 270.132812 220.101562 C 270.332031 221.230469 270.589844 222.347656 270.90625 223.453125 C 271.21875 224.558594 271.589844 225.644531 272.015625 226.710938 C 272.441406 227.777344 272.917969 228.820312 273.449219 229.839844 C 273.980469 230.855469 274.5625 231.84375 275.195312 232.804688 C 275.828125 233.761719 276.507812 234.6875 277.234375 235.578125 C 277.960938 236.464844 278.730469 237.316406 279.542969 238.128906 L 482.152344 440.648438 C 482.929688 441.457031 483.742188 442.222656 484.59375 442.949219 C 485.445312 443.675781 486.332031 444.359375 487.253906 445 C 488.171875 445.636719 489.125 446.230469 490.101562 446.773438 C 491.082031 447.320312 492.085938 447.8125 493.113281 448.257812 C 494.144531 448.703125 495.191406 449.09375 496.257812 449.433594 C 497.324219 449.773438 498.40625 450.0625 499.503906 450.292969 C 500.597656 450.527344 501.703125 450.703125 502.816406 450.828125 C 503.929688 450.949219 505.046875 451.015625 506.167969 451.027344 C 507.289062 451.039062 508.40625 450.996094 509.523438 450.894531 C 510.640625 450.792969 511.746094 450.640625 512.847656 450.429688 C 513.949219 450.21875 515.035156 449.957031 516.109375 449.636719 C 517.183594 449.316406 518.238281 448.949219 519.277344 448.523438 C 520.316406 448.101562 521.328125 447.625 522.316406 447.101562 C 523.308594 446.578125 524.269531 446.003906 525.203125 445.386719 C 526.136719 444.765625 527.035156 444.101562 527.902344 443.390625 C 528.769531 442.679688 529.601562 441.929688 530.390625 441.136719 C 531.183594 440.34375 531.933594 439.515625 532.644531 438.648438 C 533.355469 437.78125 534.019531 436.882812 534.640625 435.949219 C 535.257812 435.015625 535.832031 434.054688 536.355469 433.0625 C 536.878906 432.074219 537.355469 431.058594 537.777344 430.023438 C 538.203125 428.984375 538.574219 427.929688 538.890625 426.855469 C 539.210938 425.78125 539.472656 424.695312 539.683594 423.59375 C 539.894531 422.492188 540.050781 421.386719 540.148438 420.269531 C 540.25 419.152344 540.292969 418.035156 540.28125 416.914062 C 540.269531 415.792969 540.203125 414.675781 540.082031 413.5625 C 539.957031 412.449219 539.78125 411.34375 539.546875 410.25 C 539.316406 409.152344 539.03125 408.070312 538.6875 407.003906 C 538.347656 405.9375 537.957031 404.886719 537.511719 403.859375 C 537.066406 402.832031 536.574219 401.828125 536.027344 400.847656 C 535.484375 399.871094 534.894531 398.917969 534.253906 398 C 533.613281 397.078125 532.933594 396.191406 532.203125 395.339844 C 531.476562 394.488281 530.710938 393.671875 529.902344 392.898438 L 385.332031 248.328125 L 855.445312 248.328125 C 992.304688 248.328125 1102.550781 358.488281 1102.550781 495.34375 C 1102.550781 632.199219 992.304688 742.449219 855.445312 742.449219 L 528.230469 742.449219 C 527.113281 742.433594 526 742.472656 524.890625 742.566406 C 523.777344 742.660156 522.671875 742.8125 521.574219 743.015625 C 520.476562 743.21875 519.394531 743.476562 518.320312 743.789062 C 517.25 744.101562 516.195312 744.464844 515.160156 744.882812 C 514.125 745.296875 513.113281 745.761719 512.125 746.28125 C 511.132812 746.796875 510.171875 747.359375 509.238281 747.972656 C 508.304688 748.585938 507.40625 749.242188 506.539062 749.941406 C 505.667969 750.644531 504.835938 751.386719 504.042969 752.167969 C 503.246094 752.953125 502.492188 753.773438 501.78125 754.632812 C 501.066406 755.488281 500.398438 756.382812 499.773438 757.304688 C 499.148438 758.230469 498.570312 759.183594 498.039062 760.164062 C 497.507812 761.148438 497.027344 762.152344 496.597656 763.183594 C 496.167969 764.210938 495.789062 765.261719 495.460938 766.328125 C 495.136719 767.394531 494.863281 768.476562 494.640625 769.570312 C 494.421875 770.664062 494.257812 771.765625 494.148438 772.878906 C 494.035156 773.988281 493.980469 775.101562 493.980469 776.21875 C 493.980469 777.332031 494.035156 778.445312 494.148438 779.558594 C 494.257812 780.667969 494.421875 781.769531 494.640625 782.863281 C 494.863281 783.957031 495.136719 785.039062 495.460938 786.105469 C 495.789062 787.171875 496.167969 788.222656 496.597656 789.25 C 497.027344 790.28125 497.507812 791.285156 498.039062 792.269531 C 498.570312 793.25 499.148438 794.203125 499.773438 795.128906 C 500.398438 796.054688 501.066406 796.945312 501.78125 797.800781 C 502.492188 798.660156 503.246094 799.480469 504.042969 800.265625 C 504.835938 801.050781 505.667969 801.792969 506.539062 802.492188 C 507.40625 803.195312 508.304688 803.851562 509.238281 804.460938 C 510.171875 805.074219 511.132812 805.636719 512.125 806.15625 C 513.113281 806.671875 514.125 807.136719 515.160156 807.554688 C 516.195312 807.96875 517.25 808.332031 518.320312 808.644531 C 519.394531 808.957031 520.476562 809.214844 521.574219 809.417969 C 522.671875 809.621094 523.777344 809.773438 524.890625 809.867188 C 526 809.960938 527.113281 810 528.230469 809.984375 L 855.445312 809.984375 C 1028.804688 809.984375 1170.085938 668.703125 1170.085938 495.34375 C 1170.085938 321.984375 1028.804688 180.792969 855.445312 180.792969 L 391.839844 180.792969 L 528.496094 59.351562 C 529.777344 58.246094 530.972656 57.050781 532.078125 55.765625 C 533.183594 54.480469 534.183594 53.121094 535.085938 51.683594 C 535.984375 50.25 536.769531 48.753906 537.445312 47.199219 C 538.121094 45.644531 538.675781 44.050781 539.109375 42.410156 C 539.542969 40.773438 539.855469 39.113281 540.039062 37.429688 C 540.222656 35.742188 540.28125 34.054688 540.210938 32.363281 C 540.140625 30.667969 539.945312 28.992188 539.621094 27.328125 C 539.300781 25.664062 538.855469 24.035156 538.289062 22.4375 C 537.71875 20.839844 537.035156 19.296875 536.234375 17.800781 C 535.4375 16.308594 534.527344 14.882812 533.511719 13.527344 C 532.5 12.171875 531.386719 10.898438 530.183594 9.707031 C 528.976562 8.515625 527.6875 7.425781 526.316406 6.429688 C 524.945312 5.433594 523.507812 4.542969 522.003906 3.765625 C 520.5 2.984375 518.945312 2.324219 517.339844 1.777344 C 515.734375 1.234375 514.101562 0.808594 512.433594 0.511719 C 510.765625 0.210938 509.082031 0.0390625 507.390625 -0.0078125 Z M 507.390625 -0.0078125 " fill-opacity="1" fill-rule="nonzero"/></g></svg>
